<?xml version="1.0" encoding="UTF-8" standalone="no"?><!-- Generator: Gravit.io --><svg xmlns="http://www.w3.org/2000/svg" xmlns:xlink="http://www.w3.org/1999/xlink" style="isolation:isolate" viewBox="0 0 120 120" width="120pt" height="120pt"><defs><clipPath id="_clipPath_j5Q9irhXOSh4fC2SEh57uHkYFHNPyJ7H"><rect width="120" height="120"/></clipPath></defs><g clip-path="url(#_clipPath_j5Q9irhXOSh4fC2SEh57uHkYFHNPyJ7H)"><path d=" M 43.836 19.602 C 36.956 20.829 29.711 22.309 24.942 28.032 C 20.474 34.734 20 39.529 20 46.055 C 20 52.248 24.401 61.074 26.104 66.183 C 28.613 73.709 31.99 75.992 33.662 82.681 C 35.893 91.606 35.358 89.004 39.476 95.181 C 46.274 105.378 53.501 98.963 54.883 93.437 C 56.815 85.706 56.627 87.466 56.627 80.937 C 56.627 73.965 55.881 68.377 55.881 62.27 C 55.881 54.787 54.57 48.445 56.627 42.276 C 58.913 35.417 58.86 27.786 53.124 23.962 C 49.151 21.314 44.371 18.73 43.836 19.602 Z " fill="rgb(0,0,0)" vector-effect="non-scaling-stroke" stroke-width="1" stroke="rgb(0,0,0)" stroke-linejoin="miter" stroke-linecap="square" stroke-miterlimit="3"/><path d=" M 76.164 19.602 C 83.044 20.829 90.289 22.309 95.058 28.032 C 99.526 34.734 100 39.529 100 46.055 C 100 52.248 95.599 61.074 93.896 66.183 C 91.387 73.709 88.01 75.992 86.338 82.681 C 84.107 91.606 84.642 89.004 80.524 95.181 C 73.726 105.378 66.499 98.963 65.117 93.437 C 63.185 85.706 63.373 87.466 63.373 80.937 C 63.373 73.965 64.119 68.377 64.119 62.27 C 64.119 54.787 65.43 48.445 63.373 42.276 C 61.087 35.417 61.14 27.786 66.876 23.962 C 70.849 21.314 75.629 18.73 76.164 19.602 Z " fill="rgb(0,0,0)" vector-effect="non-scaling-stroke" stroke-width="1" stroke="rgb(0,0,0)" stroke-linejoin="miter" stroke-linecap="square" stroke-miterlimit="3"/></g></svg>