<?xml version="1.0" encoding="UTF-8" standalone="no"?><!-- Generator: Gravit.io --><svg xmlns="http://www.w3.org/2000/svg" xmlns:xlink="http://www.w3.org/1999/xlink" style="isolation:isolate" viewBox="0 0 100 100" width="100pt" height="100pt"><defs><clipPath id="_clipPath_sKhIi9d6mUrBBOh3aTUYA224DbdqZjqh"><rect width="100" height="100"/></clipPath></defs><g clip-path="url(#_clipPath_sKhIi9d6mUrBBOh3aTUYA224DbdqZjqh)"><path d=" M 48.763 96.574 L 28.94 86.415 L 5 72.2 L 28.291 76.201 L 48.763 81.064 L 48.763 88.355 L 48.763 96.574 Z "
fill="rgb(88,123,127)"
/><path d=" M 51.118 97.06 L 70.942 86.901 L 94.882 72.686 L 71.59 76.687 L 51.118 81.551 L 51.118 88.841 L 51.118 97.06 Z "
fill="rgb(64,66,58)"
/><polygon points="3.448,70.676,4.385,24.7,25.055,26.055"
fill="rgb(197,152,73)"
/><polygon points="97.202,71.353,96.265,25.378,75.595,26.733"
fill="rgb(242,186,201)"
/><polygon points="76.911,30.232,24.145,30.232,50.528,4.075"
fill="rgb(186,242,233)"
/><path d=" M 95.528 77.535 L 74.87 87.86 L 54.472 98.063 C 52.004 99.298 47.996 99.298 45.528 98.063 L 25.13 87.86 L 4.472 77.535 C 2.004 76.302 0 73.06 0 70.3 L 0 50 L 0 29.7 C 0 26.94 2.004 23.698 4.472 22.465 L 25.13 12.14 L 45.528 1.937 C 47.996 0.702 52.004 0.702 54.472 1.937 L 74.87 12.14 L 95.528 22.465 C 97.996 23.698 100 26.94 100 29.7 L 100 50 L 100 70.3 C 100 73.06 97.996 76.302 95.528 77.535 Z  M 95 72.2 L 72.63 83.39 L 50 94.7 L 27.37 83.39 L 5 72.2 L 5 50 L 5 27.8 L 27.37 16.61 L 50 5.3 L 72.63 16.61 L 95 27.8 L 95 50 L 95 72.2 Z " fill-rule="evenodd"
fill="rgb(0,0,0)"
/><path d=" M 50 79.772 L 36.022 55.561 L 22.043 31.35 L 50 31.35 L 77.957 31.35 L 63.978 55.561 L 50 79.772 Z "
fill="rgb(82,42,39)"
vector-effect="non-scaling-stroke" stroke-width="3" stroke="rgb(0,0,0)" stroke-linejoin="miter" stroke-linecap="square" stroke-miterlimit="3"/><path d=" M 22.043 32.174 L 4 70.974 L 50 80.574"
fill="rgb(199,62,29)"
vector-effect="non-scaling-stroke" stroke-width="3" stroke="rgb(0,0,0)" stroke-linejoin="miter" stroke-linecap="square" stroke-miterlimit="3"/><path d=" M 78 32.174 L 96 70.974 L 50 80.574"
fill="rgb(242,226,186)"
vector-effect="non-scaling-stroke" stroke-width="3" stroke="rgb(0,0,0)" stroke-linejoin="miter" stroke-linecap="square" stroke-miterlimit="3"/><line x1="50" y1="96.574" x2="50" y2="80.574"
vector-effect="non-scaling-stroke" stroke-width="3" stroke="rgb(0,0,0)" stroke-linejoin="miter" stroke-linecap="square" stroke-miterlimit="3"/><path d=" M 49.924 4.406 L 22.016 30.232 L 4.816 27.206"
fill="rgb(206,110,110)"
vector-effect="non-scaling-stroke" stroke-width="3" stroke="rgb(0,0,0)" stroke-linejoin="miter" stroke-linecap="square" stroke-miterlimit="3"/><path d=" M 49.924 4.406 L 22.016 30.232 L 4.816 27.206"
fill="rgb(115,240,124)"
vector-effect="non-scaling-stroke" stroke-width="3" stroke="rgb(0,0,0)" stroke-linejoin="miter" stroke-linecap="square" stroke-miterlimit="3"/><path d=" M 50.8 4.406 L 78.8 30.232 L 96 27.206"
fill="rgb(80,162,238)"
vector-effect="non-scaling-stroke" stroke-width="3" stroke="rgb(0,0,0)" stroke-linejoin="miter" stroke-linecap="square" stroke-miterlimit="3"/></g></svg>